<?xml version="1.0" encoding="UTF-8" standalone="no"?>
<svg xmlns="http://www.w3.org/2000/svg" version="1.0" width="300.000000pt" height="168.000000pt" viewBox="0 0 300.000000 168.000000" preserveAspectRatio="xMidYMid meet">
  <metadata>
Created by potrace 1.10, written by Peter Selinger 2001-2011
</metadata>
  <g transform="translate(0.000000,168.000000) scale(0.100000,-0.100000)" fill="#000000" stroke="none">
    <path d="M1451 1203 c-17 -21 -31 -40 -31 -43 0 -3 16 -21 35 -40 l35 -34 0 77 c0 42 -2 77 -4 77 -3 0 -18 -17 -35 -37z"></path>
    <path d="M1510 1166 l0 -80 35 34 c19 19 35 38 35 42 0 5 -16 25 -35 46 l-34 37 -1 -79z"></path>
    <path d="M1387 1105 c-9 -20 -17 -39 -17 -43 0 -4 27 -36 60 -70 l60 -61 0 60 c0 55 -3 65 -36 105 -20 24 -40 44 -43 44 -4 0 -15 -16 -24 -35z"></path>
    <path d="M1548 1095 c-35 -40 -38 -48 -38 -104 l0 -62 60 62 c33 34 60 65 60 70 0 13 -33 79 -39 79 -3 -1 -23 -20 -43 -45z"></path>
    <path d="M1357 1016 c-15 -37 -6 -53 43 -84 27 -17 59 -46 70 -64 l20 -33 0 31 c0 25 -13 46 -63 100 -52 56 -65 65 -70 50z"></path>
    <path d="M1571 963 c-46 -51 -61 -75 -61 -98 l0 -30 25 37 c14 21 45 49 70 64 37 21 45 31 45 54 0 16 -4 31 -9 34 -5 4 -37 -24 -70 -61z"></path>
    <path d="M1165 951 l40 -42 7 33 c3 18 5 34 3 36 -2 2 -23 6 -47 9 l-43 6 40 -42z"></path>
    <path d="M1798 983 c-13 -3 -15 -12 -11 -41 3 -20 6 -37 7 -38 1 0 18 19 40 43 l39 43 -29 -1 c-16 -1 -37 -3 -46 -6z"></path>
    <path d="M1233 964 c-7 -20 3 -94 15 -106 10 -10 45 89 37 103 -10 15 -46 17 -52 3z"></path>
    <path d="M1114 950 c3 -14 6 -35 6 -46 0 -17 8 -23 41 -28 23 -4 43 -5 45 -3 2 2 -19 25 -48 53 -43 42 -50 45 -44 24z"></path>
    <path d="M1723 962 c-9 -6 -8 -20 4 -62 14 -49 17 -52 29 -35 8 10 14 38 14 62 0 44 -15 55 -47 35z"></path>
    <path d="M1834 918 l-49 -51 34 7 c18 3 39 6 46 6 11 0 31 77 22 86 -2 2 -25 -19 -53 -48z"></path>
    <path d="M1290 890 c-12 -54 -11 -63 3 -78 9 -8 19 -13 22 -10 3 3 6 36 8 73 3 88 -16 97 -33 15z"></path>
    <path d="M1675 940 c-9 -14 5 -140 15 -140 4 0 13 7 20 15 10 12 10 27 0 75 -12 58 -22 71 -35 50z"></path>
    <path d="M1355 894 c14 -94 50 -173 111 -247 l24 -29 0 65 c0 50 -4 66 -16 71 -12 5 -14 14 -9 45 6 34 3 43 -23 72 -17 19 -44 42 -62 53 l-32 18 7 -48z m73 -80 c2 -28 2 -28 -13 -10 -18 24 -20 49 -2 44 6 -3 13 -18 15 -34z"></path>
    <path d="M1604 912 c-56 -41 -74 -72 -67 -116 4 -27 2 -37 -11 -42 -12 -5 -16 -20 -16 -71 l0 -66 35 44 c19 24 46 67 59 94 24 49 53 171 44 180 -3 3 -23 -8 -44 -23z"></path>
    <path d="M1130 852 c0 -6 4 -22 10 -36 9 -25 13 -26 81 -26 64 0 70 2 58 16 -19 23 -58 41 -106 49 -27 4 -43 3 -43 -3z"></path>
    <path d="M1804 850 c-18 -4 -47 -18 -65 -31 l-34 -24 69 -3 c75 -3 81 -1 91 41 8 30 0 32 -61 17z"></path>
    <path d="M1330 802 c0 -19 11 -38 31 -58 l31 -29 -21 42 c-11 23 -21 49 -21 58 0 8 -4 15 -10 15 -5 0 -10 -13 -10 -28z"></path>
    <path d="M1650 812 c0 -10 -9 -35 -20 -57 l-20 -38 30 28 c29 28 43 85 20 85 -5 0 -10 -8 -10 -18z"></path>
    <path d="M1482 783 c2 -10 10 -18 18 -18 8 0 16 8 18 18 2 12 -3 17 -18 17 -15 0 -20 -5 -18 -17z"></path>
    <path d="M1173 748 c8 -13 17 -22 21 -20 3 1 38 2 76 2 68 0 70 1 58 20 -11 17 -24 20 -92 20 l-78 0 15 -22z"></path>
    <path d="M1675 750 c-18 -20 -17 -20 63 -20 71 0 83 3 92 20 10 19 8 20 -63 20 -61 0 -77 -3 -92 -20z"></path>
    <path d="M1210 705 c0 -14 114 -78 169 -95 108 -34 114 -28 46 40 l-59 60 -78 0 c-43 0 -78 -2 -78 -5z"></path>
    <path d="M1580 655 c-29 -30 -51 -58 -47 -61 19 -19 205 55 243 97 17 18 14 19 -62 19 l-80 0 -54 -55z"></path>
    <path d="M1130 653 c-40 -11 -90 -37 -90 -47 0 -6 18 -31 40 -56 36 -41 41 -43 51 -27 6 11 29 27 51 37 39 17 40 18 19 30 -12 6 -30 24 -39 39 -10 16 -23 26 -32 24z m8 -66 c2 -10 -3 -17 -12 -17 -18 0 -29 16 -21 31 9 14 29 6 33 -14z"></path>
    <path d="M1170 652 c0 -27 96 -82 141 -82 18 0 20 2 8 16 -40 48 -149 96 -149 66z"></path>
    <path d="M1740 634 c-19 -14 -44 -34 -55 -45 -19 -19 -19 -19 0 -19 39 0 89 20 117 47 15 15 28 30 28 35 0 17 -56 5 -90 -18z"></path>
    <path d="M1845 640 c-3 -11 -19 -30 -35 -44 l-30 -24 33 -7 c17 -4 43 -17 55 -29 l24 -21 34 39 c41 48 42 59 7 76 -60 27 -82 30 -88 10z"></path>
    <path d="M1200 549 c-32 -13 -61 -39 -54 -50 10 -17 31 -9 68 26 37 35 33 42 -14 24z"></path>
    <path d="M1345 551 c-72 -6 -101 -17 -126 -47 -13 -16 -9 -17 58 -11 39 3 94 16 122 28 50 21 67 41 34 37 -10 -1 -49 -4 -88 -7z"></path>
    <path d="M1550 550 c0 -17 119 -52 194 -57 65 -5 78 -4 74 8 -10 30 -62 47 -165 52 -57 3 -103 2 -103 -3z"></path>
    <path d="M1827 520 c18 -21 43 -27 43 -10 0 10 -32 30 -49 30 -6 0 -3 -9 6 -20z"></path>
    <path d="M1218 463 c6 -2 12 -16 12 -29 0 -31 16 -23 22 11 5 22 2 25 -21 24 -14 0 -20 -3 -13 -6z"></path>
    <path d="M1300 438 c0 -26 3 -30 11 -18 8 11 12 12 16 3 9 -23 22 -13 20 15 -2 20 -8 28 -25 30 -19 3 -22 -1 -22 -30z"></path>
    <path d="M1392 445 c-7 -14 -12 -27 -12 -28 0 -1 14 -2 30 -2 32 0 36 6 20 36 -14 26 -25 24 -38 -6z"></path>
    <path d="M1476 453 c-9 -23 18 -48 41 -38 16 8 16 9 -5 13 -13 2 -21 9 -19 15 3 7 10 11 16 10 6 -2 11 2 11 7 0 17 -37 11 -44 -7z"></path>
    <path d="M1568 447 c-3 -15 -1 -30 3 -33 5 -3 9 0 9 7 0 8 4 9 13 0 11 -8 14 -5 14 19 0 22 -3 27 -13 19 -8 -7 -13 -6 -16 3 -3 7 -7 1 -10 -15z"></path>
    <path d="M1652 443 c2 -20 9 -29 26 -31 25 -4 29 10 7 32 -13 13 -13 15 3 19 10 3 6 5 -11 6 -25 1 -28 -2 -25 -26z"></path>
    <path d="M1738 445 c-3 -14 -1 -28 3 -31 5 -3 9 0 9 7 0 8 4 8 15 -1 13 -11 15 -8 15 19 0 40 -35 45 -42 6z"></path>
  </g>
</svg>
